# Blender 5.0.1
# www.blender.org
o Sphere
v 0.000000 1.176776 -0.523675
v 0.000000 1.001761 -0.608634
v 0.000000 0.784440 -0.641270
v 0.191342 1.198765 -0.521485
v 0.195090 1.027623 -0.608292
v 0.191342 0.806531 -0.639136
v 0.375330 1.171445 -0.464235
v 0.382683 1.003552 -0.551997
v 0.375330 0.794979 -0.590545
v 0.544895 1.086058 -0.348738
v 0.555570 0.919275 -0.435765
v 0.544895 0.717998 -0.512266
v 0.693520 0.943816 -0.188361
v 0.707107 0.791161 -0.299612
v 0.692228 0.598905 -0.410328
v 0.801753 0.734960 -0.064607
v 0.805970 0.603497 -0.213493
v 0.776385 0.454709 -0.372992
v 0.784625 0.469935 -0.002605
v 0.803830 0.380997 -0.182294
v 0.782321 0.270835 -0.356047
v 0.735395 0.266543 0.075979
v 0.753188 0.180853 -0.099536
v 0.737243 0.083348 -0.268562
v 0.711092 0.094551 0.170431
v 0.725023 0.000643 -0.000570
v 0.711092 -0.093265 -0.171571
v -0.711092 0.094552 0.170431
v -0.725022 0.000643 -0.000570
v -0.711092 -0.093265 -0.171572
v -0.751742 0.257516 0.080936
v -0.770814 0.168248 -0.092613
v -0.755206 0.074450 -0.263676
v -0.803048 0.383271 0.027217
v -0.823315 0.299214 -0.137381
v -0.818441 0.216837 -0.308120
v -0.797761 0.541663 0.013671
v -0.832027 0.429367 -0.117866
v -0.807660 0.322083 -0.263466
v -0.747686 0.682857 -0.058746
v -0.778696 0.550956 -0.167699
v -0.740127 0.403997 -0.262942
v -0.576981 0.776534 -0.173379
v -0.618047 0.623261 -0.273204
v -0.604342 0.463798 -0.340066
v -0.375330 0.920518 -0.326434
v -0.382683 0.736272 -0.405215
v -0.376358 0.551427 -0.456794
v -0.191341 1.079762 -0.456132
v -0.195090 0.899541 -0.537952
v -0.191341 0.690204 -0.575253
vn -0.0491 0.4435 -0.8949
vn -0.0115 0.1434 -0.9896
vn 0.3175 0.4423 -0.8388
vn 0.2817 0.1459 -0.9484
vn 0.6403 0.3824 -0.6662
vn 0.5540 0.2023 -0.8076
vn 0.7994 0.3595 -0.4814
vn 0.7234 0.2577 -0.6405
vn 0.8292 0.2767 -0.4856
vn 0.9030 0.3196 -0.2872
vn 0.9960 -0.0229 0.0863
vn 0.9893 -0.0080 -0.1455
vn 0.9689 -0.1667 0.1829
vn 0.9735 -0.2268 0.0310
vn 0.9886 -0.0760 0.1299
vn 0.9885 -0.1514 -0.0016
vn -0.9717 -0.1571 0.1766
vn -0.9708 -0.2354 0.0453
vn -0.9271 -0.2787 0.2507
vn -0.9276 -0.3517 0.1257
vn -0.9815 -0.0156 0.1911
vn -0.9924 0.0403 -0.1159
vn -0.9398 0.3318 -0.0818
vn -0.7718 0.3261 -0.5459
vn -0.5931 0.2951 -0.7491
vn -0.6351 0.5543 -0.5379
vn -0.6564 0.4243 -0.6238
vn -0.5389 0.2458 -0.8057
vn -0.6353 0.1544 -0.7567
vn -0.7107 0.3017 -0.6355
vn -0.4782 0.3774 -0.7930
vn -0.3948 0.1452 -0.9072
vt 0.500000 0.499076
vt 0.500000 0.992256
vt 0.437506 0.992256
vt 0.437506 0.499076
vt 0.500000 0.005897
vt 0.437506 0.005897
vt 0.375012 0.992256
vt 0.375012 0.499076
vt 0.375012 0.005897
vt 0.312519 0.992256
vt 0.312519 0.499076
vt 0.312519 0.005897
vt 0.250025 0.992256
vt 0.250025 0.499076
vt 0.250025 0.005897
vt 0.187531 0.499076
vt 0.187531 0.005897
vt 0.187531 0.992256
vt 0.125038 0.992256
vt 0.125038 0.499076
vt 0.125038 0.005897
vt 0.062544 0.992256
vt 0.062544 0.499076
vt 0.062544 0.005897
vt 0.000050 0.992256
vt 0.000050 0.499076
vt 0.000050 0.005897
vt 0.999950 0.499076
vt 0.999950 0.992256
vt 0.937456 0.992256
vt 0.937456 0.499076
vt 0.999950 0.005897
vt 0.937456 0.005897
vt 0.874962 0.992256
vt 0.874962 0.499076
vt 0.874962 0.005897
vt 0.812469 0.992256
vt 0.812469 0.499076
vt 0.812469 0.005897
vt 0.749975 0.992256
vt 0.749975 0.499076
vt 0.749975 0.005897
vt 0.687481 0.499076
vt 0.687481 0.005897
vt 0.687481 0.992256
vt 0.624987 0.992256
vt 0.624987 0.499076
vt 0.624987 0.005897
vt 0.562494 0.499076
vt 0.562494 0.005897
vt 0.562494 0.992256
s 0
f 2/1/1 1/2/1 4/3/1 5/4/1
f 3/5/2 2/1/2 5/4/2 6/6/2
f 5/4/3 4/3/3 7/7/3 8/8/3
f 6/6/4 5/4/4 8/8/4 9/9/4
f 8/8/5 7/7/5 10/10/5 11/11/5
f 9/9/6 8/8/6 11/11/6 12/12/6
f 11/11/7 10/10/7 13/13/7 14/14/7
f 12/12/8 11/11/8 14/14/8 15/15/8
f 15/15/9 14/14/9 17/16/9 18/17/9
f 14/14/10 13/13/10 16/18/10 17/16/10
f 17/16/11 16/18/11 19/19/11 20/20/11
f 18/17/12 17/16/12 20/20/12 21/21/12
f 20/20/13 19/19/13 22/22/13 23/23/13
f 21/21/14 20/20/14 23/23/14 24/24/14
f 23/23/15 22/22/15 25/25/15 26/26/15
f 24/24/16 23/23/16 26/26/16 27/27/16
f 29/28/17 28/29/17 31/30/17 32/31/17
f 30/32/18 29/28/18 32/31/18 33/33/18
f 32/31/19 31/30/19 34/34/19 35/35/19
f 33/33/20 32/31/20 35/35/20 36/36/20
f 35/35/21 34/34/21 37/37/21 38/38/21
f 36/36/22 35/35/22 38/38/22 39/39/22
f 38/38/23 37/37/23 40/40/23 41/41/23
f 39/39/24 38/38/24 41/41/24 42/42/24
f 42/42/25 41/41/25 44/43/25 45/44/25
f 41/41/26 40/40/26 43/45/26 44/43/26
f 44/43/27 43/45/27 46/46/27 47/47/27
f 45/44/28 44/43/28 47/47/28 48/48/28
f 48/48/29 47/47/29 50/49/29 51/50/29
f 47/47/30 46/46/30 49/51/30 50/49/30
f 50/49/31 49/51/31 1/2/31 2/1/31
f 51/50/32 50/49/32 2/1/32 3/5/32
